#format: frame checksums
#version: 2
#hash: MD5
#tb 0: 1001/30000
#media_type 0: video
#codec_id 0: rawvideo
#dimensions 0: 66x16
#sar 0: 1/1
#stream#, dts,        pts, duration,     size, hash
0,          0,          0,        1,     1584, fa2f292d273c37dc2804a70d1cae1e9d
0,          1,          1,        1,     1584, ba75d90652c021bc7ca061352e6e94ce
0,          2,          2,        1,     1584, e65d9a205bd17d100e50c7b6a7ea772d
0,          3,          3,        1,     1584, 46f9e9ff891576b9462f21d48b7b9e2b
0,          4,          4,        1,     1584, d23cedacf3a37cf6b2774e0b18b6b9d7
0,          5,          5,        1,     1584, 84329f7716a6db5a7e64a68a1155bfc6
0,          6,          6,        1,     1584, ad62286b0e13f4e54df4445cdd4fd4e3
0,          7,          7,        1,     1584, 4511529eb24b21eb63e280070f888642
0,          8,          8,        1,     1584, 4e1c122df1785e0e9134c43c85082e05
0,          9,          9,        1,     1584, ac3a3747a00be3f9f58155648fcf9b24
